<svg width="25" height="24" viewBox="0 0 25 24" fill="none" xmlns="http://www.w3.org/2000/svg">
<path d="M17.7425 22.75H7.26252C4.46252 22.75 2.68252 21.08 2.52252 18.29L2.00252 10.04C1.96061 9.42669 2.04652 8.81136 2.25481 8.23298C2.46309 7.6546 2.78921 7.12578 3.21252 6.68C4.06252 5.77 5.26252 5.25 6.50252 5.25C6.82252 5.25 7.13252 5.06 7.28252 4.76L8.00252 3.33C8.59252 2.16 10.0725 1.25 11.3625 1.25H13.6525C14.9425 1.25 16.4125 2.16 17.0025 3.32L17.7225 4.78C17.8725 5.06 18.1725 5.25 18.5025 5.25C19.7425 5.25 20.9425 5.77 21.7925 6.68C22.6525 7.6 23.0825 8.79 23.0025 10.04L22.4825 18.3C22.3025 21.13 20.5725 22.75 17.7425 22.75ZM11.3625 2.75C10.6225 2.75 9.68252 3.33 9.34252 4L8.62252 5.44C8.20252 6.25 7.39252 6.75 6.50252 6.75C5.66252 6.75 4.88252 7.09 4.30252 7.7C3.73252 8.31 3.44252 9.11 3.50252 9.94L4.02252 18.2C4.14252 20.22 5.23252 21.25 7.26252 21.25H17.7425C19.7625 21.25 20.8525 20.22 20.9825 18.2L21.5025 9.94C21.5295 9.53176 21.4724 9.12232 21.3348 8.73703C21.1972 8.35173 20.982 7.99877 20.7025 7.7C20.1225 7.09 19.3425 6.75 18.5025 6.75C17.6125 6.75 16.8025 6.25 16.3825 5.46L15.6525 4C15.3225 3.34 14.3825 2.76 13.6425 2.76H11.3625V2.75Z" fill="white"/>
<path d="M14 8.75H11C10.59 8.75 10.25 8.41 10.25 8C10.25 7.59 10.59 7.25 11 7.25H14C14.41 7.25 14.75 7.59 14.75 8C14.75 8.41 14.41 8.75 14 8.75ZM12.5 18.75C10.29 18.75 8.5 16.96 8.5 14.75C8.5 12.54 10.29 10.75 12.5 10.75C14.71 10.75 16.5 12.54 16.5 14.75C16.5 16.96 14.71 18.75 12.5 18.75ZM12.5 12.25C11.837 12.25 11.2011 12.5134 10.7322 12.9822C10.2634 13.4511 10 14.087 10 14.75C10 15.413 10.2634 16.0489 10.7322 16.5178C11.2011 16.9866 11.837 17.25 12.5 17.25C13.163 17.25 13.7989 16.9866 14.2678 16.5178C14.7366 16.0489 15 15.413 15 14.75C15 14.087 14.7366 13.4511 14.2678 12.9822C13.7989 12.5134 13.163 12.25 12.5 12.25Z" fill="white"/>
</svg>
