<svg width="25" height="24" viewBox="0 0 25 24" fill="none" xmlns="http://www.w3.org/2000/svg">
<path d="M16.4398 11H16.4488M12.4388 11H12.4478M8.43787 11H8.44685M8.94336 19H8.44336C4.44336 19 2.44336 18 2.44336 13V8C2.44336 4 4.44336 2 8.44336 2H16.4434C20.4434 2 22.4434 4 22.4434 8V13C22.4434 17 20.4434 19 16.4434 19H15.9434C15.6334 19 15.3334 19.15 15.1434 19.4L13.6434 21.4C12.9834 22.28 11.9034 22.28 11.2434 21.4L9.74336 19.4C9.58336 19.18 9.21336 19 8.94336 19Z" stroke="#292D32" stroke-width="1.5" stroke-linecap="round" stroke-linejoin="round"/>
</svg>
