<svg width="215" height="172" viewBox="0 0 215 172" fill="none" xmlns="http://www.w3.org/2000/svg">
<path fill-rule="evenodd" clip-rule="evenodd" d="M54.6091 114.905H132.642C133.083 114.905 133.513 114.857 133.928 114.767C134.342 114.857 134.773 114.905 135.214 114.905H179.804C183.119 114.905 185.807 112.217 185.807 108.902C185.807 105.587 183.119 102.9 179.804 102.9H174.659C171.344 102.9 168.657 100.212 168.657 96.8974C168.657 93.5823 171.344 90.8949 174.659 90.8949H190.952C194.267 90.8949 196.954 88.2075 196.954 84.8924C196.954 81.5773 194.267 78.8899 190.952 78.8899H172.087C175.402 78.8899 178.089 76.2025 178.089 72.8874C178.089 69.5723 175.402 66.8849 172.087 66.8849H117.207C120.522 66.8849 123.209 64.1975 123.209 60.8824C123.209 57.5673 120.522 54.8799 117.207 54.8799H68.3291C65.014 54.8799 62.3266 57.5673 62.3266 60.8824C62.3266 64.1975 65.014 66.8849 68.3291 66.8849H34.0291C30.714 66.8849 28.0266 69.5723 28.0266 72.8874C28.0266 76.2025 30.714 78.8899 34.0291 78.8899H55.4666C58.7817 78.8899 61.4691 81.5773 61.4691 84.8924C61.4691 88.2075 58.7817 90.8949 55.4666 90.8949H21.1666C17.8515 90.8949 15.1641 93.5823 15.1641 96.8974C15.1641 100.212 17.8515 102.9 21.1666 102.9H54.6091C51.294 102.9 48.6066 105.587 48.6066 108.902C48.6066 112.217 51.294 114.905 54.6091 114.905ZM194.382 114.905C197.697 114.905 200.384 112.217 200.384 108.902C200.384 105.587 197.697 102.9 194.382 102.9C191.066 102.9 188.379 105.587 188.379 108.902C188.379 112.217 191.066 114.905 194.382 114.905Z" fill="#F3FFF3"/>
<path d="M143.79 126.91H163.022M55.4675 126.91H73.8644H55.4675ZM44.4297 126.91H50.3225H44.4297ZM167.052 126.91H169.515H167.052Z" stroke="#10BB76" stroke-width="2.5" stroke-linecap="round" stroke-linejoin="round"/>
<path d="M84.6211 37.132L94.139 47.8105M129.297 37.132L119.779 47.8105L129.297 37.132ZM106.916 33.4424V47.8105V33.4424Z" stroke="#10BB76" stroke-width="2.5" stroke-linecap="round" stroke-linejoin="round"/>
<path fill-rule="evenodd" clip-rule="evenodd" d="M80.1572 60.8828H133.842L129.035 68.0942L135.445 72.9019H78.5547L85.7661 68.0942L80.1572 60.8828Z" fill="#EBFEE8"/>
<path fill-rule="evenodd" clip-rule="evenodd" d="M80.8359 106.335V76.8709C80.8359 75.6569 81.8308 74.6729 83.0581 74.6729L135.346 129.623C135.346 131.242 134.05 132.554 132.452 132.554H83.7299C82.1316 132.554 80.8359 131.242 80.8359 129.623V118.673V115.703V106.335ZM80.8359 112.697V109.397V112.697Z" fill="#EBFEE8"/>
<path d="M77.7617 106.727V74.5044C77.7617 73.1768 78.8512 72.1006 80.1951 72.1006H135.867C136.742 72.1006 137.451 72.8181 137.451 73.7031V132.196C137.451 133.966 136.033 135.401 134.282 135.401H80.9307C79.1805 135.401 77.7617 133.966 77.7617 132.196V120.221V116.972M77.7617 113.684V110.076" stroke="#10BB76" stroke-width="2.5" stroke-linecap="round"/>
<path d="M79.3564 72.1006V62.4853C79.3564 61.6003 80.0003 60.8828 80.7946 60.8828L134.007 60.8828C134.801 60.8828 135.445 61.6003 135.445 62.4853V72.1006" stroke="#10BB76" stroke-width="2.5"/>
<path d="M94.1794 88.9272C95.7283 88.9272 96.9839 87.6717 96.9839 86.1228C96.9839 84.5739 95.7283 83.3184 94.1794 83.3184C92.6306 83.3184 91.375 84.5739 91.375 86.1228C91.375 87.6717 92.6306 88.9272 94.1794 88.9272Z" fill="#EBFEE8" stroke="#10BB76" stroke-width="2.5" stroke-linecap="round"/>
<path d="M120.625 88.9272C122.174 88.9272 123.429 87.6717 123.429 86.1228C123.429 84.5739 122.174 83.3184 120.625 83.3184C119.076 83.3184 117.82 84.5739 117.82 86.1228C117.82 87.6717 119.076 88.9272 120.625 88.9272Z" fill="#EBFEE8" stroke="#10BB76" stroke-width="2.5" stroke-linecap="round"/>
<path d="M120.223 88.9277C120.223 96.0082 114.483 101.748 107.402 101.748C100.322 101.748 94.582 96.0082 94.582 88.9277" stroke="#10BB76" stroke-width="2.5" stroke-linecap="round"/>
<path d="M80.2096 61.6816L85.8505 67.25C86.1876 67.5827 86.1911 68.1256 85.8584 68.4626C85.8008 68.5209 85.7352 68.5707 85.6635 68.6104L79.3594 72.1007" stroke="#10BB76" stroke-width="2.5" stroke-linecap="round"/>
<path d="M134.733 61.7393L129.335 67.2448C129.004 67.583 129.009 68.1259 129.347 68.4574C129.404 68.5128 129.467 68.5601 129.537 68.5979L135.957 72.1002" stroke="#10BB76" stroke-width="2.5" stroke-linecap="round"/>
</svg>
