<svg width="24" height="25" viewBox="0 0 24 25" fill="none" xmlns="http://www.w3.org/2000/svg">
<path d="M12 2.46729C13.9891 2.46729 15.8968 3.25746 17.3033 4.66398C18.7098 6.07051 19.5 7.97816 19.5 9.96729C19.5 12.5353 18.1 14.6233 16.65 16.1073C16.0736 16.6912 15.4542 17.2311 14.797 17.7223C14.203 18.1683 12.845 19.0043 12.845 19.0043C12.5874 19.1507 12.2963 19.2277 12 19.2277C11.7037 19.2277 11.4126 19.1507 11.155 19.0043C10.4811 18.6135 9.82938 18.1855 9.203 17.7223C8.5458 17.2311 7.9264 16.6912 7.35 16.1073C5.9 14.6233 4.5 12.5353 4.5 9.96729C4.5 7.97816 5.29018 6.07051 6.6967 4.66398C8.10322 3.25746 10.0109 2.46729 12 2.46729Z" fill="#009260"/>
<path d="M6.72 17.1073C6.97461 17.033 7.24829 17.0629 7.48083 17.1905C7.71338 17.318 7.88574 17.5327 7.96 17.7873C8.03426 18.0419 8.00434 18.3156 7.87681 18.5481C7.74929 18.7807 7.53461 18.953 7.28 19.0273C6.78 19.1733 6.42 19.3273 6.189 19.4673C6.427 19.6103 6.803 19.7703 7.325 19.9193C8.48 20.2493 10.133 20.4673 12 20.4673C13.867 20.4673 15.52 20.2493 16.675 19.9193C17.198 19.7703 17.573 19.6103 17.811 19.4673C17.581 19.3273 17.221 19.1733 16.721 19.0273C16.4704 18.9498 16.2603 18.7769 16.136 18.5459C16.0117 18.3149 15.9831 18.0443 16.0564 17.7924C16.1298 17.5406 16.2991 17.3276 16.528 17.1994C16.7569 17.0713 17.0269 17.0382 17.28 17.1073C17.948 17.3023 18.56 17.5523 19.03 17.8733C19.465 18.1723 20 18.6933 20 19.4673C20 20.2503 19.452 20.7753 19.01 21.0743C18.532 21.3963 17.907 21.6473 17.224 21.8423C15.846 22.2373 14 22.4673 12 22.4673C10 22.4673 8.154 22.2373 6.776 21.8423C6.093 21.6473 5.468 21.3963 4.99 21.0743C4.548 20.7743 4 20.2503 4 19.4673C4 18.6933 4.535 18.1723 4.97 17.8733C5.44 17.5523 6.052 17.3023 6.72 17.1073ZM12 7.96729C10.46 7.96729 9.498 9.63429 10.268 10.9673C10.625 11.5863 11.285 11.9673 12 11.9673C13.54 11.9673 14.502 10.3003 13.732 8.96729C13.5565 8.66325 13.304 8.41078 13 8.23525C12.6959 8.05971 12.3511 7.96729 12 7.96729Z" fill="black"/>
</svg>
