<svg width="25" height="29" viewBox="0 0 25 29" fill="none" xmlns="http://www.w3.org/2000/svg">
<path d="M23.993 9.60033C22.6063 3.42699 17.2197 0.666992 12.4997 0.666992C12.4997 0.666992 12.4997 0.666992 12.4863 0.666992C7.77967 0.666992 2.40633 3.42699 1.00633 9.58699C-0.567 16.467 3.64633 22.2937 7.45967 25.9737C8.873 27.3337 10.6863 28.0137 12.4997 28.0137C14.313 28.0137 16.1263 27.3337 17.5263 25.9737C21.3397 22.2937 25.553 16.4803 23.993 9.60033ZM16.1663 13.667H13.4997V16.3337C13.4997 16.8803 13.0463 17.3337 12.4997 17.3337C11.953 17.3337 11.4997 16.8803 11.4997 16.3337V13.667H8.833C8.28633 13.667 7.833 13.2137 7.833 12.667C7.833 12.1203 8.28633 11.667 8.833 11.667H11.4997V9.00033C11.4997 8.45366 11.953 8.00033 12.4997 8.00033C13.0463 8.00033 13.4997 8.45366 13.4997 9.00033V11.667H16.1663C16.713 11.667 17.1663 12.1203 17.1663 12.667C17.1663 13.2137 16.713 13.667 16.1663 13.667Z" fill="url(#paint0_linear_19717_41289)"/>
<defs>
<linearGradient id="paint0_linear_19717_41289" x1="27.9475" y1="12.3324" x2="-1.36679" y2="12.3324" gradientUnits="userSpaceOnUse">
<stop offset="0.0186175" stop-color="#065544"/>
<stop offset="0.512813" stop-color="#068056"/>
<stop offset="1" stop-color="#0B8E60"/>
</linearGradient>
</defs>
</svg>
