<svg width="24" height="25" viewBox="0 0 24 25" fill="none" xmlns="http://www.w3.org/2000/svg">
<path d="M3.01172 11.2344V15.7244C3.01172 20.2144 4.81172 22.0144 9.30172 22.0144H14.6917C19.1817 22.0144 20.9817 20.2144 20.9817 15.7244V11.2344" stroke="#009260" stroke-width="1.5" stroke-linecap="round" stroke-linejoin="round"/>
<path d="M12.0005 12.0137C13.8305 12.0137 15.1805 10.5237 15.0005 8.69367L14.3405 2.01367H9.67048L9.00048 8.69367C8.82048 10.5237 10.1705 12.0137 12.0005 12.0137Z" stroke="#009260" stroke-width="1.5" stroke-linecap="round" stroke-linejoin="round"/>
<path d="M18.3108 12.0137C20.3308 12.0137 21.8108 10.3737 21.6108 8.36367L21.3308 5.61367C20.9708 3.01367 19.9708 2.01367 17.3508 2.01367H14.3008L15.0008 9.02367C15.1708 10.6737 16.6608 12.0137 18.3108 12.0137Z" stroke="#009260" stroke-width="1.5" stroke-linecap="round" stroke-linejoin="round"/>
<path d="M5.63842 12.0137C7.28842 12.0137 8.77842 10.6737 8.93842 9.02367L9.15842 6.81367L9.63842 2.01367H6.58842C3.96842 2.01367 2.96842 3.01367 2.60842 5.61367L2.33842 8.36367C2.13842 10.3737 3.61842 12.0137 5.63842 12.0137Z" stroke="#009260" stroke-width="1.5" stroke-linecap="round" stroke-linejoin="round"/>
<path d="M12 17.0137C10.33 17.0137 9.5 17.8437 9.5 19.5137V22.0137H14.5V19.5137C14.5 17.8437 13.67 17.0137 12 17.0137Z" stroke="#009260" stroke-width="1.5" stroke-linecap="round" stroke-linejoin="round"/>
</svg>
