<svg width="24" height="25" viewBox="0 0 24 25" fill="none" xmlns="http://www.w3.org/2000/svg">
<path d="M8.81141 2.01367L5.19141 5.64367" stroke="#001726" stroke-width="1.5" stroke-miterlimit="10" stroke-linecap="round" stroke-linejoin="round"/>
<path d="M15.1914 2.01367L18.8114 5.64367" stroke="#001726" stroke-width="1.5" stroke-miterlimit="10" stroke-linecap="round" stroke-linejoin="round"/>
<path d="M2 7.86328C2 6.01328 2.99 5.86328 4.22 5.86328H19.78C21.01 5.86328 22 6.01328 22 7.86328C22 10.0133 21.01 9.86328 19.78 9.86328H4.22C2.99 9.86328 2 10.0133 2 7.86328Z" stroke="#001726" stroke-width="1.5"/>
<path d="M9.76172 14.0137V17.5637" stroke="#001726" stroke-width="1.5" stroke-linecap="round"/>
<path d="M14.3594 14.0137V17.5637" stroke="#001726" stroke-width="1.5" stroke-linecap="round"/>
<path d="M3.5 10.0137L4.91 18.6537C5.23 20.5937 6 22.0137 8.86 22.0137H14.89C18 22.0137 18.46 20.6537 18.82 18.7737L20.5 10.0137" stroke="#001726" stroke-width="1.5" stroke-linecap="round"/>
</svg>
