<svg width="24" height="25" viewBox="0 0 24 25" fill="none" xmlns="http://www.w3.org/2000/svg">
<path d="M12 15.0137C13.6569 15.0137 15 13.6705 15 12.0137C15 10.3568 13.6569 9.01367 12 9.01367C10.3431 9.01367 9 10.3568 9 12.0137C9 13.6705 10.3431 15.0137 12 15.0137Z" stroke="#009260" stroke-width="1.5" stroke-miterlimit="10" stroke-linecap="round" stroke-linejoin="round"/>
<path d="M2 12.8931V11.1331C2 10.0931 2.85 9.23312 3.9 9.23312C5.71 9.23312 6.45 7.95312 5.54 6.38312C5.02 5.48312 5.33 4.31312 6.24 3.79312L7.97 2.80312C8.76 2.33312 9.78 2.61312 10.25 3.40312L10.36 3.59312C11.26 5.16312 12.74 5.16312 13.65 3.59312L13.76 3.40312C14.23 2.61312 15.25 2.33312 16.04 2.80312L17.77 3.79312C18.68 4.31312 18.99 5.48312 18.47 6.38312C17.56 7.95312 18.3 9.23312 20.11 9.23312C21.15 9.23312 22.01 10.0831 22.01 11.1331V12.8931C22.01 13.9331 21.16 14.7931 20.11 14.7931C18.3 14.7931 17.56 16.0731 18.47 17.6431C18.99 18.5531 18.68 19.7131 17.77 20.2331L16.04 21.2231C15.25 21.6931 14.23 21.4131 13.76 20.6231L13.65 20.4331C12.75 18.8631 11.27 18.8631 10.36 20.4331L10.25 20.6231C9.78 21.4131 8.76 21.6931 7.97 21.2231L6.24 20.2331C5.33 19.7131 5.02 18.5431 5.54 17.6431C6.45 16.0731 5.71 14.7931 3.9 14.7931C2.85 14.7931 2 13.9331 2 12.8931Z" stroke="#009260" stroke-width="1.5" stroke-miterlimit="10" stroke-linecap="round" stroke-linejoin="round"/>
</svg>
