<svg width="11" height="14" viewBox="0 0 11 14" fill="none" xmlns="http://www.w3.org/2000/svg">
<path d="M4.61987 13.0444C4.30715 13.0445 3.99521 13.013 3.6888 12.9506C3.09792 12.8295 2.53666 12.5933 2.03703 12.2554C1.29426 11.754 0.712841 11.0479 0.363238 10.2227C0.245049 9.94329 0.154819 9.65284 0.0938671 9.35563C-0.031289 8.74122 -0.031289 8.10789 0.0938671 7.49348C0.214898 6.90261 0.451092 6.34134 0.788972 5.84172C1.29041 5.09894 1.9965 4.51753 2.82169 4.16793C3.10113 4.04974 3.39158 3.95951 3.6888 3.89855C4.3032 3.7734 4.93653 3.7734 5.55094 3.89855C6.14182 4.01959 6.70308 4.25578 7.2027 4.59366C7.94548 5.0951 8.52689 5.80119 8.8765 6.62638C8.99469 6.90582 9.08492 7.19627 9.14587 7.49348C9.26894 8.0981 9.27087 8.72112 9.15155 9.32648C9.04922 9.84718 8.8568 10.346 8.58296 10.8006C8.17284 11.4854 7.59211 12.0521 6.89748 12.4454C6.20286 12.8387 5.4181 13.0451 4.61987 13.0444ZM6.21122 6.26035C6.13636 6.26029 6.06222 6.27501 5.99307 6.30368C5.92391 6.33234 5.8611 6.37437 5.80823 6.42737L4.19342 8.04004C4.08645 8.14721 4.02643 8.29247 4.02656 8.44389C4.02669 8.59531 4.08697 8.74047 4.19413 8.84745C4.3013 8.95442 4.44656 9.01444 4.59798 9.01431C4.7494 9.01417 4.89456 8.9539 5.00153 8.84673L5.80823 8.04004L6.61492 7.23406C6.69556 7.15465 6.75066 7.05299 6.77319 6.94208C6.79571 6.83117 6.78462 6.71606 6.74134 6.61149C6.69806 6.50692 6.62456 6.41764 6.53025 6.35509C6.43593 6.29253 6.3251 6.25954 6.21193 6.26035H6.21122Z" fill="url(#paint0_linear_20562_42358)"/>
<path d="M2.35938 1.56189C2.35938 1.40166 2.42302 1.248 2.53632 1.1347C2.64962 1.0214 2.80328 0.957756 2.9635 0.957756L6.58828 0.957756C6.74851 0.957756 6.90217 1.0214 7.01547 1.1347C7.12877 1.248 7.19241 1.40166 7.19241 1.56189C7.19241 1.72211 7.12877 1.87577 7.01547 1.98907C6.90217 2.10237 6.74851 2.16602 6.58828 2.16602H2.9635C2.80328 2.16602 2.64962 2.10237 2.53632 1.98907C2.42302 1.87577 2.35938 1.72211 2.35938 1.56189V1.56189Z" fill="url(#paint1_linear_20562_42358)"/>
<path d="M8.55844 2.6896C8.67547 2.57257 8.8342 2.50683 8.9997 2.50683C9.1652 2.50683 9.32393 2.57257 9.44096 2.6896L10.238 3.48668C10.3551 3.60371 10.4208 3.76243 10.4208 3.92794C10.4208 4.09344 10.3551 4.25216 10.238 4.36919C10.121 4.48622 9.96228 4.55197 9.79678 4.55197C9.63127 4.55197 9.47255 4.48622 9.35552 4.36919L8.55844 3.57212C8.44142 3.45509 8.37567 3.29636 8.37567 3.13086C8.37567 2.96536 8.44142 2.80663 8.55844 2.6896Z" fill="url(#paint2_linear_20562_42358)"/>
<defs>
<linearGradient id="paint0_linear_20562_42358" x1="5.31191" y1="19.2115" x2="5.55105" y2="-4.86244" gradientUnits="userSpaceOnUse">
<stop stop-color="#10BB76"/>
<stop offset="0.517233" stop-color="#0C9463" stop-opacity="0.826585"/>
<stop offset="1" stop-color="#001726" stop-opacity="0.28"/>
</linearGradient>
<linearGradient id="paint1_linear_20562_42358" x1="10.4183" y1="1.47138" x2="-2.15557" y2="0.971759" gradientUnits="userSpaceOnUse">
<stop stop-color="#10BB76"/>
<stop offset="0.517233" stop-color="#0C9463" stop-opacity="0.826585"/>
<stop offset="1" stop-color="#001726" stop-opacity="0.28"/>
</linearGradient>
<linearGradient id="paint2_linear_20562_42358" x1="11.4252" y1="5.42414" x2="7.13288" y2="0.966407" gradientUnits="userSpaceOnUse">
<stop stop-color="#10BB76"/>
<stop offset="0.517233" stop-color="#0C9463" stop-opacity="0.826585"/>
<stop offset="1" stop-color="#001726" stop-opacity="0.28"/>
</linearGradient>
</defs>
</svg>
