<svg width="24" height="24" viewBox="0 0 24 24" fill="none" xmlns="http://www.w3.org/2000/svg">
<path d="M20.9997 6.73046H20.9197C15.6297 6.20046 10.3497 6.00046 5.11967 6.53046L3.07967 6.73046C2.98044 6.74082 2.88013 6.7314 2.78456 6.70275C2.68898 6.6741 2.60004 6.6268 2.52286 6.56356C2.44567 6.50033 2.38179 6.42243 2.3349 6.33436C2.28801 6.24629 2.25904 6.1498 2.24967 6.05046C2.20967 5.63046 2.50967 5.27046 2.91967 5.23046L4.95967 5.03046C10.2797 4.49046 15.6697 4.70046 21.0697 5.23046C21.4797 5.27046 21.7797 5.64046 21.7397 6.05046C21.7246 6.23615 21.64 6.4093 21.5028 6.53535C21.3656 6.6614 21.186 6.73108 20.9997 6.73046Z" fill="#FF5656"/>
<path d="M8.50039 5.72C8.46039 5.72 8.42039 5.72 8.37039 5.71C8.17637 5.67504 8.0038 5.56538 7.88975 5.40458C7.77569 5.24378 7.72925 5.04467 7.76039 4.85L7.98039 3.54C8.14039 2.58 8.36039 1.25 10.6904 1.25H13.3104C15.6504 1.25 15.8704 2.63 16.0204 3.55L16.2404 4.85C16.3104 5.26 16.0304 5.65 15.6304 5.71C15.2204 5.78 14.8304 5.5 14.7704 5.1L14.5504 3.8C14.4104 2.93 14.3804 2.76 13.3204 2.76H10.7004C9.64039 2.76 9.62039 2.9 9.47039 3.79L9.24039 5.09C9.2119 5.26576 9.12181 5.42565 8.98623 5.54107C8.85066 5.6565 8.67844 5.71992 8.50039 5.72ZM15.2104 22.752H8.79039C5.30039 22.752 5.16039 20.822 5.05039 19.262L4.40039 9.192C4.37039 8.782 4.69039 8.422 5.10039 8.392C5.52039 8.372 5.87039 8.682 5.90039 9.092L6.55039 19.162C6.66039 20.682 6.70039 21.252 8.79039 21.252H15.2104C17.3104 21.252 17.3504 20.682 17.4504 19.162L18.1004 9.092C18.1304 8.682 18.4904 8.372 18.9004 8.392C19.3104 8.422 19.6304 8.772 19.6004 9.192L18.9504 19.262C18.8404 20.822 18.7004 22.752 15.2104 22.752Z" fill="#FF5656"/>
<path d="M13.66 17.25H10.33C9.92 17.25 9.58 16.91 9.58 16.5C9.58 16.09 9.92 15.75 10.33 15.75H13.66C14.07 15.75 14.41 16.09 14.41 16.5C14.41 16.91 14.07 17.25 13.66 17.25ZM14.5 13.25H9.5C9.09 13.25 8.75 12.91 8.75 12.5C8.75 12.09 9.09 11.75 9.5 11.75H14.5C14.91 11.75 15.25 12.09 15.25 12.5C15.25 12.91 14.91 13.25 14.5 13.25Z" fill="#FF5656"/>
</svg>
