<svg width="24" height="24" viewBox="0 0 24 24" fill="none" xmlns="http://www.w3.org/2000/svg">
<path opacity="0.4" d="M22 9V16.46C22 18.75 20.14 20.6 17.85 20.6H6.15C3.86 20.6 2 18.75 2 16.46V9H22Z" fill="#009DE3"/>
<path d="M22 7.53844V8.99844H2V7.53844C2 5.24844 3.86 3.39844 6.15 3.39844H17.85C20.14 3.39844 22 5.24844 22 7.53844ZM8 17.2504H6C5.59 17.2504 5.25 16.9104 5.25 16.5004C5.25 16.0904 5.59 15.7504 6 15.7504H8C8.41 15.7504 8.75 16.0904 8.75 16.5004C8.75 16.9104 8.41 17.2504 8 17.2504ZM14.5 17.2504H10.5C10.09 17.2504 9.75 16.9104 9.75 16.5004C9.75 16.0904 10.09 15.7504 10.5 15.7504H14.5C14.91 15.7504 15.25 16.0904 15.25 16.5004C15.25 16.9104 14.91 17.2504 14.5 17.2504Z" fill="#009DE3"/>
</svg>
