<svg width="22" height="22" viewBox="0 0 22 22" fill="none" xmlns="http://www.w3.org/2000/svg">
<path d="M21 11.5127H18C16.9 11.5127 16 12.4127 16 13.5127C16 14.6127 16.9 15.5127 18 15.5127H21M21 11.0127V16.0127C21 19.0127 19 21.0127 16 21.0127H6C3 21.0127 1 19.0127 1 16.0127V11.0127C1 8.2927 2.64 6.39269 5.19 6.07269C5.45 6.03269 5.72 6.0127 6 6.0127H16C16.26 6.0127 16.51 6.02268 16.75 6.06268C19.33 6.36268 21 8.2727 21 11.0127ZM16.7514 6.06269C16.5114 6.02269 16.2614 6.01271 16.0014 6.01271H6.00141C5.72141 6.01271 5.45141 6.0327 5.19141 6.0727C5.33141 5.7927 5.53141 5.53271 5.77141 5.29271L9.02141 2.0327C10.3914 0.672695 12.6114 0.672695 13.9814 2.0327L15.7314 3.80271C16.3714 4.43271 16.7114 5.23269 16.7514 6.06269Z" stroke="#009260" stroke-width="1.5" stroke-linecap="round" stroke-linejoin="round"/>
</svg>
